<?xml version="1.0" standalone="no"?>
<!DOCTYPE svg PUBLIC "-//W3C//DTD SVG 20010904//EN"
 "http://www.w3.org/TR/2001/REC-SVG-20010904/DTD/svg10.dtd">
<svg version="1.0" xmlns="http://www.w3.org/2000/svg"
 width="512.000000pt" height="512.000000pt" viewBox="0 0 512.000000 512.000000"
 preserveAspectRatio="xMidYMid meet">

<g transform="translate(0.000000,512.000000) scale(0.100000,-0.100000)"
fill="#000000" stroke="none">
<path d="M2325 4949 c-254 -24 -579 -117 -819 -234 -232 -113 -504 -310 -672
-487 -626 -660 -832 -1573 -548 -2427 239 -718 797 -1276 1514 -1515 1022
-340 2128 31 2738 917 560 814 560 1900 0 2714 -497 722 -1337 1114 -2213
1032z m-637 -1155 c25 -10 173 -151 454 -432 l418 -417 422 422 c339 337 431
423 463 434 231 76 440 -145 348 -369 -10 -25 -146 -168 -431 -454 l-417 -418
417 -417 c285 -287 421 -430 431 -455 57 -138 3 -286 -128 -353 -49 -25 -70
-30 -124 -29 -38 1 -83 9 -106 19 -28 12 -162 138 -457 433 l-418 417 -417
-417 c-287 -285 -430 -421 -455 -431 -184 -75 -384 54 -383 247 1 118 -10 104
448 564 l422 422 -417 418 c-293 293 -421 429 -434 457 -24 55 -24 169 0 215
44 84 111 141 189 161 42 11 129 2 175 -17z"/>
</g>
</svg>
